<svg width="181" height="108" viewBox="0 0 181 108" fill="none" xmlns="http://www.w3.org/2000/svg">
<path d="M57.5894 36.1134C72.6152 20.5177 91.6178 20.8224 104.369 22.1675C121.41 23.9652 139.998 35.3908 143.951 56.0049C146.866 71.2082 139.067 83.7443 127.025 92.1021C115.047 100.415 98.3832 105.06 81.5863 105.013C48.2569 104.919 23.146 81.2088 8.16071 58.5269C6.38629 55.841 4.22798 52.3747 2.52905 49.6088C2.17256 49.0284 1.83736 48.4753 1.52654 47.9659L11.8604 47.5855C13.1464 49.6517 14.505 51.801 15.6708 53.5656C30.0283 75.2972 52.7815 95.9311 81.6108 96.0126C96.9107 96.0557 111.69 91.7886 121.893 84.7078C132.031 77.6717 137.151 68.3311 135.113 57.6993C132.121 42.0955 117.784 32.6323 103.424 31.1175C91.2337 29.8316 76.0336 29.9421 64.0716 42.3578C63.0723 43.3949 62.118 45.0501 61.3383 46.765L51.5519 47.1252C51.6131 46.9384 51.6874 46.7107 51.7782 46.4504C52.0322 45.7224 52.4071 44.7162 52.8993 43.5869C53.8385 41.4319 55.3816 38.4052 57.5894 36.1134Z" fill="#D9D9D9"/>
<path d="M121.817 72.2623C106.791 87.8579 87.7885 87.5533 75.0374 86.2083C57.9964 84.4106 39.4081 72.985 35.4554 52.3708C32.5404 37.1675 40.3388 24.6315 52.3813 16.2736C64.3591 7.96094 81.0232 3.31576 97.82 3.36304C131.149 3.45724 156.26 27.1671 171.246 49.8489C173.02 52.5348 175.178 56.001 176.877 58.7669C177.145 59.2022 177.399 59.6227 177.642 60.02L167.302 60.4005C166.089 58.4561 164.828 56.464 163.735 54.8102C149.378 33.0787 126.625 12.4449 97.7955 12.3632C82.4957 12.3201 67.7159 16.5872 57.5132 23.668C47.3751 30.7042 42.2551 40.0446 44.2936 50.6764C47.2857 66.2803 61.6225 75.7435 75.9823 77.2583C88.1725 78.5441 103.373 78.4335 115.335 66.018C116.413 64.899 117.441 63.0619 118.251 61.2053L127.985 60.847C127.968 60.9017 127.947 60.9679 127.923 61.0448C127.855 61.2596 127.756 61.5599 127.628 61.9254C127.374 62.6534 126.999 63.6596 126.507 64.7888C125.568 66.9438 124.025 69.9706 121.817 72.2623Z" fill="#D9D9D9"/>
<path d="M74.8075 53.0165C90.5685 53.9723 90.1608 39.2122 90.1608 39.2122C90.1608 39.2122 90.2792 53.0619 104.807 53.0165C90.4329 53.0614 90.1608 67.2122 90.1608 67.2122C90.1608 67.2122 90.5685 53.9723 74.8075 53.0165Z" fill="#D9D9D9"/>
</svg>
