<svg width="694" height="165" viewBox="0 0 694 165" fill="none" xmlns="http://www.w3.org/2000/svg">
<path d="M298 115H283V48H298V115ZM248 115H233V48H248V115ZM290.7 88.1H237.2V74.6H290.7V88.1ZM321.047 115H306.047V64.9H321.047V115ZM321.047 59.8H306.047V48H321.047V59.8ZM343.898 115H328.898V64.9H342.798V79.2L343.898 79.7V115ZM343.898 86H340.898V78.2H343.698C344.165 75.4667 345.065 73.0333 346.398 70.9C347.798 68.7 349.665 67 351.998 65.8C354.332 64.5333 357.165 63.9 360.498 63.9C364.298 63.9 367.332 64.7 369.598 66.3C371.932 67.8333 373.632 69.9333 374.698 72.6C375.765 75.2 376.298 78.1333 376.298 81.4V89.7H361.298V84.5C361.298 81.7 360.665 79.7 359.398 78.5C358.198 77.2333 356.065 76.6 352.998 76.6C349.665 76.6 347.298 77.3667 345.898 78.9C344.565 80.4333 343.898 82.8 343.898 86ZM408.33 116C402.797 116 397.897 115.067 393.63 113.2C389.364 111.333 386.064 108.467 383.73 104.6C381.397 100.733 380.23 95.8667 380.23 90C380.23 84.6667 381.397 80.0667 383.73 76.2C386.064 72.2667 389.297 69.2333 393.43 67.1C397.63 64.9667 402.497 63.9 408.03 63.9C413.497 63.9 418.264 64.8333 422.33 66.7C426.464 68.5667 429.664 71.3333 431.93 75C434.197 78.6 435.33 83 435.33 88.2C435.33 89.0667 435.297 89.8667 435.23 90.6C435.164 91.3333 435.064 92.1333 434.93 93H389.93V85.1H424.33L420.93 90C420.93 89.3333 420.93 88.7 420.93 88.1C420.93 87.5 420.93 86.9 420.93 86.3C420.93 82.5 419.897 79.7667 417.83 78.1C415.764 76.4333 412.397 75.6 407.73 75.6C402.664 75.6 399.13 76.6 397.13 78.6C395.13 80.5333 394.13 83.6333 394.13 87.9V91.7C394.13 95.9667 395.13 99.1 397.13 101.1C399.13 103.033 402.697 104 407.83 104C412.23 104 415.33 103.433 417.13 102.3C418.93 101.167 419.83 99.5333 419.83 97.4V96.4H434.83V97.5C434.83 101.1 433.73 104.3 431.53 107.1C429.33 109.9 426.23 112.1 422.23 113.7C418.297 115.233 413.664 116 408.33 116ZM456.691 115H441.691V48H456.691V115ZM496.591 115H445.891V101.5H496.591V115ZM529.229 116C523.696 116 518.796 115.067 514.529 113.2C510.262 111.333 506.962 108.467 504.629 104.6C502.296 100.733 501.129 95.8667 501.129 90C501.129 84.6667 502.296 80.0667 504.629 76.2C506.962 72.2667 510.196 69.2333 514.329 67.1C518.529 64.9667 523.396 63.9 528.929 63.9C534.396 63.9 539.162 64.8333 543.229 66.7C547.362 68.5667 550.562 71.3333 552.829 75C555.096 78.6 556.229 83 556.229 88.2C556.229 89.0667 556.196 89.8667 556.129 90.6C556.062 91.3333 555.962 92.1333 555.829 93H510.829V85.1H545.229L541.829 90C541.829 89.3333 541.829 88.7 541.829 88.1C541.829 87.5 541.829 86.9 541.829 86.3C541.829 82.5 540.796 79.7667 538.729 78.1C536.662 76.4333 533.296 75.6 528.629 75.6C523.562 75.6 520.029 76.6 518.029 78.6C516.029 80.5333 515.029 83.6333 515.029 87.9V91.7C515.029 95.9667 516.029 99.1 518.029 101.1C520.029 103.033 523.596 104 528.729 104C533.129 104 536.229 103.433 538.029 102.3C539.829 101.167 540.729 99.5333 540.729 97.4V96.4H555.729V97.5C555.729 101.1 554.629 104.3 552.429 107.1C550.229 109.9 547.129 112.1 543.129 113.7C539.196 115.233 534.562 116 529.229 116ZM617.99 115H602.99V88.8C602.99 84.7333 602.057 81.8333 600.19 80.1C598.323 78.3 595.09 77.4 590.49 77.4C585.69 77.4 582.323 78.4 580.39 80.4C578.523 82.3333 577.59 85.4333 577.59 89.7H575.69L574.59 80.3H577.39C577.857 77.5 578.857 74.8667 580.39 72.4C581.923 69.8667 584.09 67.8333 586.89 66.3C589.757 64.7 593.39 63.9 597.79 63.9C602.323 63.9 606.09 64.8 609.09 66.6C612.09 68.3333 614.323 70.7 615.79 73.7C617.257 76.7 617.99 80.0667 617.99 83.8V115ZM577.59 115H562.59V64.9H576.49V80.5L577.59 81V115ZM650.878 116C642.478 116 636.011 114.433 631.478 111.3C626.945 108.1 624.678 103.6 624.678 97.8V97.5H639.678V98.4C639.678 100.667 640.478 102.2 642.078 103C643.745 103.733 646.711 104.1 650.978 104.1C654.978 104.1 657.611 103.767 658.878 103.1C660.211 102.367 660.878 101.267 660.878 99.8C660.878 98.4 660.378 97.4333 659.378 96.9C658.378 96.3 656.411 95.8 653.478 95.4L639.378 93.7C634.378 93.1667 630.511 91.7667 627.778 89.5C625.111 87.2333 623.778 83.9667 623.778 79.7C623.778 76.7667 624.645 74.1333 626.378 71.8C628.111 69.4 630.778 67.5 634.378 66.1C638.045 64.6333 642.745 63.9 648.478 63.9C653.945 63.9 658.578 64.6 662.378 66C666.245 67.3333 669.178 69.3667 671.178 72.1C673.178 74.8333 674.178 78.2333 674.178 82.3V82.6H659.178V82C659.178 80.6 658.878 79.4667 658.278 78.6C657.745 77.6667 656.645 76.9667 654.978 76.5C653.378 76.0333 651.045 75.8 647.978 75.8C644.245 75.8 641.745 76.1667 640.478 76.9C639.211 77.5667 638.578 78.7 638.578 80.3C638.578 81.5667 639.078 82.5333 640.078 83.2C641.145 83.8 643.311 84.3333 646.578 84.8L657.278 86.1C663.945 86.8333 668.678 88.3667 671.478 90.7C674.278 93.0333 675.678 96.2667 675.678 100.4C675.678 103.533 674.678 106.267 672.678 108.6C670.678 110.933 667.845 112.767 664.178 114.1C660.511 115.367 656.078 116 650.878 116Z" fill="white"/>
<path d="M73.5895 65.1137C88.6152 49.518 107.618 49.8226 120.369 51.1677C137.41 52.9655 155.998 64.3911 159.951 85.0052C162.866 100.208 155.067 112.745 143.025 121.102C131.047 129.415 114.383 134.06 97.5864 134.013C64.257 133.919 39.146 110.209 24.1607 87.5271C22.3864 84.8413 20.228 81.3749 18.5291 78.6091C18.1725 78.0284 17.8375 77.4747 17.5265 76.9651L27.8604 76.5848C29.1465 78.6511 30.5049 80.8011 31.6708 82.5658C46.0283 104.297 68.7816 124.931 97.6108 125.013C112.911 125.056 127.69 120.789 137.893 113.708C148.031 106.672 153.151 97.3313 151.113 86.6996C148.121 71.0957 133.784 61.6325 119.424 60.1177C107.234 58.8318 92.0336 58.9423 80.0716 71.358C79.0725 72.3951 78.1179 74.0497 77.3383 75.7642L67.5529 76.1244C67.614 75.9379 67.6877 75.7104 67.7783 75.4506C68.0322 74.7227 68.4072 73.7163 68.8993 72.5872C69.8386 70.4321 71.3817 67.4054 73.5895 65.1137Z" fill="white"/>
<path d="M138.544 100.836C123.518 116.432 104.516 116.127 91.7644 114.782C74.7234 112.985 56.1351 101.559 52.1824 80.9449C49.2673 65.7415 57.0657 53.2055 69.1083 44.8477C81.0861 36.5348 97.75 31.8898 114.547 31.9371C147.876 32.0311 172.987 55.741 187.973 78.423C189.747 81.1088 191.905 84.575 193.604 87.341C193.961 87.9214 194.296 88.4745 194.607 88.9839L184.273 89.3643C182.987 87.2981 181.628 85.1488 180.462 83.3842C166.105 61.6526 143.352 41.0188 114.523 40.9372C99.2225 40.8941 84.4429 45.1611 74.2402 52.242C64.102 59.2782 58.982 68.6186 61.0206 79.2505C64.0127 94.8543 78.3495 104.318 92.7093 105.832C104.9 107.118 120.1 107.008 132.062 94.5921C133.061 93.5549 134.015 91.8997 134.795 90.1848L144.581 89.8246C144.52 90.0114 144.446 90.2391 144.355 90.4994C144.101 91.2275 143.726 92.2336 143.234 93.3629C142.295 95.518 140.752 98.5446 138.544 100.836Z" fill="white"/>
<path d="M90.8075 82.0165C106.569 82.9723 106.161 68.2122 106.161 68.2122C106.161 68.2122 106.279 82.0619 120.807 82.0165C106.433 82.0614 106.161 96.2122 106.161 96.2122C106.161 96.2122 106.569 82.9723 90.8075 82.0165Z" fill="white"/>
</svg>
